<svg width="190" height="35" viewBox="0 0 190 35" fill="none" xmlns="http://www.w3.org/2000/svg">
<circle cx="95" cy="17" r="17" fill="#FBBE24"/>
<path d="M1.092 25.32L3.304 25.04V8.296L1.204 7.904V6.196H5.264C5.61867 6.196 6.01067 6.18667 6.44 6.168C6.86933 6.14933 7.196 6.13066 7.42 6.112C8.39067 6.03733 9.19333 6 9.828 6C11.7507 6 13.2907 6.196 14.448 6.588C15.6053 6.98 16.4453 7.57733 16.968 8.38C17.4907 9.18267 17.752 10.2373 17.752 11.544C17.752 12.832 17.4067 14.0267 16.716 15.128C16.0253 16.2293 15.0267 16.9853 13.72 17.396C14.4667 17.7133 15.1293 18.292 15.708 19.132C16.2867 19.972 16.9027 21.064 17.556 22.408C18.0227 23.3227 18.3773 23.9853 18.62 24.396C18.8813 24.788 19.1333 25.012 19.376 25.068L20.3 25.348V27H15.54C15.2413 27 14.924 26.7013 14.588 26.104C14.2707 25.488 13.8507 24.5267 13.328 23.22C12.712 21.6893 12.18 20.4947 11.732 19.636C11.284 18.7773 10.808 18.2453 10.304 18.04H7.42V25.04L9.996 25.32V27H1.092V25.32ZM9.996 16.332C11.06 16.332 11.8907 15.9493 12.488 15.184C13.0853 14.4187 13.384 13.2707 13.384 11.74C13.384 10.3773 13.0853 9.36933 12.488 8.716C11.9093 8.06267 10.9013 7.736 9.464 7.736C8.94133 7.736 8.49333 7.764 8.12 7.82C7.76533 7.85733 7.532 7.876 7.42 7.876V16.276C7.644 16.3133 8.18533 16.332 9.044 16.332H9.996ZM21.4397 19.244C21.4397 17.4893 21.785 15.996 22.4757 14.764C23.185 13.532 24.1277 12.608 25.3037 11.992C26.4797 11.3573 27.7584 11.04 29.1397 11.04C31.4917 11.04 33.3024 11.768 34.5717 13.224C35.8597 14.6613 36.5037 16.6213 36.5037 19.104C36.5037 20.8773 36.149 22.3893 35.4397 23.64C34.749 24.872 33.8157 25.796 32.6397 26.412C31.4824 27.0093 30.2037 27.308 28.8037 27.308C26.4704 27.308 24.6597 26.5893 23.3717 25.152C22.0837 23.696 21.4397 21.7267 21.4397 19.244ZM29.0277 25.488C31.137 25.488 32.1917 23.4533 32.1917 19.384C32.1917 17.256 31.9397 15.6413 31.4357 14.54C30.9317 13.42 30.1104 12.86 28.9717 12.86C26.8064 12.86 25.7237 14.8947 25.7237 18.964C25.7237 21.092 25.985 22.716 26.5077 23.836C27.049 24.9373 27.889 25.488 29.0277 25.488ZM42.3811 8.884C41.7091 8.884 41.1771 8.688 40.7851 8.296C40.3931 7.904 40.1971 7.4 40.1971 6.784C40.1971 6.07467 40.4211 5.48667 40.8691 5.02C41.3171 4.55333 41.9144 4.32 42.6611 4.32C43.4077 4.32 43.9771 4.52533 44.3691 4.936C44.7611 5.328 44.9571 5.82267 44.9571 6.42C44.9571 7.16667 44.7331 7.764 44.2851 8.212C43.8371 8.66 43.2117 8.884 42.4091 8.884H42.3811ZM40.8971 14.092L38.9091 13.56V11.684L44.0331 11.068H44.0891L44.8731 11.628V25.096L46.7491 25.32V27H38.9371V25.32L40.8971 25.068V14.092ZM51.8641 24.704C52.0134 24.928 52.3494 25.1427 52.8721 25.348C53.4134 25.5347 53.9548 25.628 54.4961 25.628C55.3734 25.628 56.0268 25.4507 56.4561 25.096C56.9041 24.7227 57.1281 24.2373 57.1281 23.64C57.1281 23.024 56.8574 22.5293 56.3161 22.156C55.7748 21.764 54.8601 21.288 53.5721 20.728L52.7881 20.392C51.5001 19.8507 50.5388 19.1973 49.9041 18.432C49.2694 17.6667 48.9521 16.6773 48.9521 15.464C48.9521 14.624 49.2041 13.8773 49.7081 13.224C50.2121 12.552 50.9214 12.0293 51.8361 11.656C52.7508 11.2827 53.8054 11.096 55.0001 11.096C55.8774 11.096 56.6241 11.152 57.2401 11.264C57.8748 11.376 58.5374 11.5253 59.2281 11.712C59.6014 11.8427 59.8814 11.9173 60.0681 11.936V15.604H57.8561L57.2121 13.476C57.1001 13.2893 56.8481 13.1213 56.4561 12.972C56.0641 12.8227 55.6161 12.748 55.1121 12.748C54.3468 12.748 53.7308 12.916 53.2641 13.252C52.8161 13.5693 52.5921 14.0173 52.5921 14.596C52.5921 15.1187 52.7508 15.5573 53.0681 15.912C53.3854 16.248 53.7308 16.5093 54.1041 16.696C54.4774 16.8827 55.1681 17.1907 56.1761 17.62C57.1841 18.0493 58.0148 18.46 58.6681 18.852C59.3401 19.244 59.8908 19.7573 60.3201 20.392C60.7681 21.008 60.9921 21.764 60.9921 22.66C60.9921 24.0413 60.4508 25.1613 59.3681 26.02C58.2854 26.8787 56.7268 27.308 54.6921 27.308C53.7401 27.308 52.8814 27.224 52.1161 27.056C51.3694 26.888 50.5014 26.664 49.5121 26.384L48.8961 26.188V22.492H51.2201L51.8641 24.704ZM79.2722 27.308C76.0988 27.308 73.6722 26.3653 71.9922 24.48C70.3122 22.576 69.4722 19.9813 69.4722 16.696C69.4722 14.5307 69.9108 12.6453 70.7882 11.04C71.6842 9.416 72.9068 8.16533 74.4562 7.288C76.0055 6.41067 77.7602 5.972 79.7202 5.972C80.5415 5.972 81.3348 6.028 82.1002 6.14C82.8655 6.23333 83.7708 6.364 84.8162 6.532C85.6002 6.66267 86.0295 6.728 86.1042 6.728L85.7962 12.496H83.2202L82.3522 8.492C82.1468 8.28667 81.7922 8.11867 81.2882 7.988C80.7842 7.85733 80.1402 7.792 79.3562 7.792C77.7695 7.792 76.4908 8.52933 75.5202 10.004C74.5682 11.46 74.0922 13.5787 74.0922 16.36C74.0922 19.048 74.5495 21.2413 75.4642 22.94C76.3788 24.6387 77.7135 25.488 79.4682 25.488C80.3082 25.488 80.9522 25.4133 81.4002 25.264C81.8668 25.096 82.2588 24.8627 82.5762 24.564L83.8082 21.68L86.1602 21.904L85.6002 26.244C85.2082 26.2813 84.8162 26.356 84.4242 26.468C84.0508 26.5613 83.8175 26.6173 83.7242 26.636C82.9775 26.8413 82.2775 27 81.6242 27.112C80.9895 27.2427 80.2055 27.308 79.2722 27.308ZM88.0418 22.632C88.0418 20.9333 88.8912 19.6547 90.5898 18.796C92.3072 17.9373 94.5192 17.4987 97.2258 17.48V16.836C97.2258 16.0707 97.1418 15.4733 96.9738 15.044C96.8245 14.6147 96.5352 14.2973 96.1058 14.092C95.6952 13.868 95.0885 13.756 94.2858 13.756C93.3712 13.756 92.5498 13.8773 91.8218 14.12C91.0938 14.344 90.3378 14.6427 89.5538 15.016L88.6858 13.224C88.9658 12.9813 89.4325 12.692 90.0858 12.356C90.7578 12.02 91.5512 11.7307 92.4658 11.488C93.3805 11.2267 94.3232 11.096 95.2938 11.096C96.7312 11.096 97.8512 11.2827 98.6538 11.656C99.4752 12.0293 100.063 12.6267 100.418 13.448C100.773 14.2693 100.95 15.3707 100.95 16.752V25.32H102.462V26.888C102.089 26.9813 101.557 27.0747 100.866 27.168C100.175 27.2613 99.5685 27.308 99.0458 27.308C98.4112 27.308 97.9818 27.2147 97.7578 27.028C97.5525 26.8413 97.4498 26.4587 97.4498 25.88V25.124C96.9458 25.684 96.2925 26.188 95.4898 26.636C94.6872 27.084 93.7818 27.308 92.7738 27.308C91.9152 27.308 91.1218 27.1307 90.3938 26.776C89.6845 26.4027 89.1152 25.8707 88.6858 25.18C88.2565 24.4707 88.0418 23.6213 88.0418 22.632ZM94.5658 24.984C94.9578 24.984 95.4058 24.872 95.9098 24.648C96.4138 24.4053 96.8525 24.116 97.2258 23.78V19.188C95.5458 19.188 94.2858 19.4773 93.4458 20.056C92.6245 20.616 92.2138 21.344 92.2138 22.24C92.2138 23.136 92.4192 23.8173 92.8298 24.284C93.2592 24.7507 93.8378 24.984 94.5658 24.984ZM108.913 27.252C107.737 27.252 106.869 26.9813 106.309 26.44C105.749 25.8987 105.469 25.04 105.469 23.864V13.588H103.649V12.132C103.799 12.076 104.069 11.9827 104.461 11.852C104.853 11.7027 105.152 11.5813 105.357 11.488C105.675 11.2453 105.945 10.8253 106.169 10.228C106.337 9.836 106.645 8.86533 107.093 7.316H109.333L109.445 11.432H113.729V13.588H109.473V21.456C109.473 22.5013 109.501 23.2387 109.557 23.668C109.613 24.0973 109.735 24.3773 109.921 24.508C110.108 24.62 110.435 24.676 110.901 24.676C111.368 24.676 111.853 24.6293 112.357 24.536C112.861 24.424 113.281 24.2933 113.617 24.144L114.149 25.712C113.627 26.104 112.861 26.4587 111.853 26.776C110.845 27.0933 109.865 27.252 108.913 27.252ZM122.695 27.308C120.231 27.308 118.392 26.5893 117.179 25.152C115.984 23.696 115.387 21.7173 115.387 19.216C115.387 17.536 115.695 16.08 116.311 14.848C116.946 13.616 117.832 12.6733 118.971 12.02C120.11 11.3667 121.426 11.04 122.919 11.04C124.786 11.04 126.223 11.5347 127.231 12.524C128.239 13.4947 128.762 14.8853 128.799 16.696C128.799 17.928 128.724 18.8427 128.575 19.44H119.475C119.55 21.1387 119.951 22.464 120.679 23.416C121.407 24.3493 122.443 24.816 123.787 24.816C124.515 24.816 125.262 24.6947 126.027 24.452C126.811 24.2093 127.427 23.92 127.875 23.584L128.575 25.124C128.071 25.6653 127.25 26.1693 126.111 26.636C124.991 27.084 123.852 27.308 122.695 27.308ZM124.879 17.76C124.916 17.2373 124.935 16.836 124.935 16.556C124.935 14.0733 124.104 12.832 122.443 12.832C121.528 12.832 120.819 13.196 120.315 13.924C119.811 14.652 119.531 15.9307 119.475 17.76H124.879ZM131.033 25.348L132.881 25.124V14.092L131.089 13.588V11.656L135.429 11.068H135.513L136.213 11.628V12.244L136.129 14.512H136.213C136.344 14.1387 136.652 13.6813 137.137 13.14C137.623 12.58 138.229 12.0947 138.957 11.684C139.704 11.2547 140.507 11.04 141.365 11.04C141.776 11.04 142.131 11.096 142.429 11.208V15.408C141.869 15.016 141.188 14.82 140.385 14.82C139.023 14.82 137.837 15.184 136.829 15.912V25.096L140.077 25.348V27H131.033V25.348ZM147.545 8.884C146.873 8.884 146.341 8.688 145.949 8.296C145.557 7.904 145.361 7.4 145.361 6.784C145.361 6.07467 145.585 5.48667 146.033 5.02C146.481 4.55333 147.078 4.32 147.825 4.32C148.572 4.32 149.141 4.52533 149.533 4.936C149.925 5.328 150.121 5.82267 150.121 6.42C150.121 7.16667 149.897 7.764 149.449 8.212C149.001 8.66 148.376 8.884 147.573 8.884H147.545ZM146.061 14.092L144.073 13.56V11.684L149.197 11.068H149.253L150.037 11.628V25.096L151.913 25.32V27H144.101V25.32L146.061 25.068V14.092ZM155.488 14.092L153.696 13.588V11.656L158.344 11.068H158.428L159.128 11.628V12.72L159.1 13.392C159.753 12.776 160.603 12.244 161.648 11.796C162.693 11.348 163.748 11.124 164.812 11.124C165.951 11.124 166.837 11.3387 167.472 11.768C168.125 12.1787 168.592 12.832 168.872 13.728C169.152 14.624 169.292 15.8373 169.292 17.368V25.096L171 25.32V27H163.776V25.32L165.288 25.096V17.368C165.288 16.3973 165.223 15.6413 165.092 15.1C164.961 14.54 164.719 14.1387 164.364 13.896C164.028 13.6347 163.543 13.504 162.908 13.504C161.844 13.504 160.705 13.9613 159.492 14.876V25.068L161.172 25.32V27H153.864V25.32L155.488 25.068V14.092ZM179.755 34.56C177.253 34.56 175.443 34.168 174.323 33.384C173.203 32.6 172.643 31.536 172.643 30.192C172.643 29.4267 172.895 28.6987 173.399 28.008C173.921 27.336 174.547 26.832 175.275 26.496C174.416 25.992 173.987 25.1893 173.987 24.088C173.987 23.4533 174.192 22.856 174.603 22.296C175.013 21.7173 175.545 21.2693 176.199 20.952C175.172 20.56 174.407 19.9627 173.903 19.16C173.399 18.3573 173.147 17.4053 173.147 16.304C173.147 15.24 173.455 14.316 174.071 13.532C174.705 12.7293 175.545 12.1133 176.591 11.684C177.655 11.2547 178.803 11.04 180.035 11.04C182.219 11.04 183.843 11.46 184.907 12.3C185.149 11.9827 185.56 11.684 186.139 11.404C186.717 11.124 187.315 10.984 187.931 10.984H188.911V14.036H186.027C186.307 14.6333 186.447 15.268 186.447 15.94C186.465 17.6387 185.868 19.0013 184.655 20.028C183.441 21.036 181.78 21.54 179.671 21.54C178.793 21.54 178.056 21.4747 177.459 21.344C177.272 21.5867 177.123 21.848 177.011 22.128C176.917 22.3893 176.871 22.6227 176.871 22.828C176.871 23.444 177.085 23.864 177.515 24.088C177.963 24.312 178.756 24.424 179.895 24.424H182.891C186.699 24.424 188.603 25.8053 188.603 28.568C188.603 29.7253 188.192 30.7613 187.371 31.676C186.549 32.5907 185.457 33.3 184.095 33.804C182.732 34.308 181.285 34.56 179.755 34.56ZM179.951 19.804C181.687 19.804 182.555 18.6187 182.555 16.248C182.555 15.0347 182.331 14.148 181.883 13.588C181.453 13.0093 180.791 12.72 179.895 12.72C179.017 12.72 178.336 13.0093 177.851 13.588C177.384 14.148 177.151 14.9973 177.151 16.136C177.151 18.5813 178.084 19.804 179.951 19.804ZM180.175 32.628C181.351 32.628 182.368 32.3387 183.227 31.76C184.085 31.2 184.515 30.416 184.515 29.408C184.515 28.6053 184.3 28.0267 183.871 27.672C183.46 27.3173 182.713 27.14 181.631 27.14H178.579C178.112 27.14 177.683 27.112 177.291 27.056C176.787 27.728 176.535 28.5307 176.535 29.464C176.535 30.4907 176.815 31.2747 177.375 31.816C177.935 32.3573 178.868 32.628 180.175 32.628Z" fill="black"/>
</svg>
